<svg xmlns="http://www.w3.org/2000/svg"  viewBox="0 0 128 128" width="64px" height="64px"><path fill="#FFF" d="M105,60.9V89v0c0,3.3-1.5,6.5-4,8.6c-20.9,16.8-51.6,17.3-72,0.1c-2.5-2.2-4-5.4-4-8.7v0V60.7"/><path fill="#FFF" d="M10 54L66 79 120 54 66 29z"/><path fill="#7CA5C6" d="M66,79l-18.1-8.1C58.2,79.7,71.4,84.4,85,84.2v22.4c5.7-2.1,11.1-5.2,16-9.1c2.6-2.1,4-5.3,4-8.6v-8.9V60.9L66,79z"/><path fill="#454B54" d="M64.5,113.3c-13.5,0-26.9-4.4-37.4-13.3c-3.2-2.7-5-6.7-5-11V60.7c0-1.7,1.3-3,3-3s3,1.3,3,3V89c0,2.5,1.1,4.8,2.9,6.4c18.9,16,48.2,15.9,68.2-0.1c1.9-1.5,2.9-3.8,2.9-6.3V60.9c0-1.7,1.3-3,3-3s3,1.3,3,3V89c0,4.3-1.9,8.3-5.2,10.9C91.7,108.9,78,113.3,64.5,113.3z"/><path fill="#454B54" d="M66 82c-.4 0-.8-.1-1.2-.3l-56-25C7.7 56.3 7 55.2 7 54s.7-2.3 1.8-2.7l56-25c.8-.4 1.7-.3 2.5 0l54 25c1.1.5 1.7 1.6 1.7 2.7s-.7 2.2-1.7 2.7l-54 25C66.9 81.9 66.4 82 66 82zM17.4 54L66 75.7 112.9 54 66 32.3 17.4 54zM120 85.9c-1.7 0-3-1.3-3-3V64c0-1.7 1.3-3 3-3s3 1.3 3 3v18.9C123 84.5 121.7 85.9 120 85.9z"/></svg>